<?xml version="1.0" encoding="UTF-8"?>
<svg version="1.1" xmlns="http://www.w3.org/2000/svg" width="710" height="117">
<path d="M0 0 C6.54293403 -0.05135686 13.08581477 -0.08600428 19.62890625 -0.10986328 C21.84767601 -0.11982589 24.06643297 -0.13340085 26.28515625 -0.15087891 C62.77985564 -0.43084727 62.77985564 -0.43084727 70.6484375 5.53125 C74.50344542 9.72050716 74.3812797 15.60893469 74.25 21.0078125 C73.01247105 35.81948717 69.41122137 52.84189216 58.40234375 63.5546875 C46.04257178 72.73623239 26.41107082 70.3519738 12 70 C11.88785156 71.10730469 11.77570313 72.21460937 11.66015625 73.35546875 C11.02280762 78.45763002 9.74565335 83.34738013 8.4375 88.3125 C7.97462122 90.0785802 7.51484419 91.84547708 7.05859375 93.61328125 C6.85548584 94.38454346 6.65237793 95.15580566 6.44311523 95.95043945 C5.89434112 98.13922299 5.89434112 98.13922299 6 101 C6.66 101.33 7.32 101.66 8 102 C8 103.65 8 105.3 8 107 C3.93756043 107.05819473 -0.12477146 107.09366215 -4.1875 107.125 C-5.33798828 107.14175781 -6.48847656 107.15851563 -7.67382812 107.17578125 C-8.78564453 107.18222656 -9.89746094 107.18867187 -11.04296875 107.1953125 C-12.57473755 107.21102295 -12.57473755 107.21102295 -14.13745117 107.22705078 C-17.12612167 106.98999632 -19.29423369 106.25617102 -22 105 C-21.37913824 96.49756101 -19.23752903 88.44410236 -17.10546875 80.22265625 C-16.71230391 78.68695977 -16.31976324 77.15110338 -15.92781067 75.61509705 C-14.89715895 71.58149729 -13.8597579 67.54966779 -12.82037354 63.51831055 C-11.16670108 57.10137885 -9.52172118 50.68222525 -7.87984657 44.26226616 C-7.31330004 42.05197552 -6.74287498 39.84271565 -6.17192078 37.63356018 C-4.24301238 30.13520443 -2.42145933 22.62035076 -0.73168945 15.06420898 C-0.55743785 14.28799981 -0.38318624 13.51179064 -0.20365429 12.71205997 C0.68319181 8.89245796 0.68319181 8.89245796 1 5 C0.34 5 -0.32 5 -1 5 C-0.67 3.35 -0.34 1.7 0 0 Z M25 18 C22.36 28.89 19.72 39.78 17 51 C31.30836933 52.02761821 31.30836933 52.02761821 41.6875 45.375 C46.53384699 39.03267452 48.59463868 29.88542599 48 22 C46.13278201 19.48428714 45.03872749 19.01290916 42 18 C40.66474283 17.92026524 39.32587917 17.89228662 37.98828125 17.90234375 C37.30548096 17.90484131 36.62268066 17.90733887 35.91918945 17.90991211 C35.05898193 17.91901611 34.19877441 17.92812012 33.3125 17.9375 C29.1978125 17.9684375 29.1978125 17.9684375 25 18 Z " fill="#FEFEFE" transform="translate(142,5)"/>
<path d="M0 0 C4.69472281 3.60315146 7.27512802 8.04464838 8.09033203 13.93383789 C8.2515241 16.55411606 8.29158894 19.14432156 8.2734375 21.76953125 C8.26844238 22.72802979 8.26344727 23.68652832 8.25830078 24.67407227 C7.78730765 44.5126277 1.29004013 68.15088833 -12.390625 82.9921875 C-22.24268521 92.31948162 -32.94577585 92.83583401 -45.9765625 92.89453125 C-47.67039062 92.92546875 -47.67039062 92.92546875 -49.3984375 92.95703125 C-58.76451267 93.00039271 -67.87976686 91.96619261 -75.2265625 85.64453125 C-82.38838134 76.38087427 -82.04376057 65.90048826 -81.2265625 54.64453125 C-78.92722704 36.73214717 -72.29552749 15.17699556 -58.32421875 2.984375 C-42.54451858 -7.88877732 -16.78362543 -10.21740004 0 0 Z M-42.8515625 18.20703125 C-52.41656331 29.99247867 -58.9980904 48.80097016 -58.1015625 64.01953125 C-57.51862205 68.24082413 -56.53944448 70.77933602 -53.2265625 73.64453125 C-48.40299415 76.05631542 -44.33272729 75.85686011 -39.2265625 74.64453125 C-32.27278608 72.23199657 -27.54113648 66.43414772 -24.1015625 60.08203125 C-18.31006808 47.45058222 -13.38647324 32.64761048 -15.2265625 18.64453125 C-16.58542389 15.79614871 -17.7433508 14.72349919 -20.2265625 12.64453125 C-28.71064213 9.81650471 -36.69790799 11.64224897 -42.8515625 18.20703125 Z " fill="#FEFEFE" transform="translate(378.2265625,20.35546875)"/>
<path d="M0 0 C1.52451782 0.03951782 1.52451782 0.03951782 3.07983398 0.07983398 C9.58783151 0.35984921 14.12690922 1.37327284 19.1875 5.75 C23.53764616 10.90572878 22.33158062 19.22011058 22.05419922 25.64404297 C21.38766849 33.47714119 17.6144 41.36398132 11.875 46.75 C6.88678905 50.03277125 2.86608635 51.87968529 -3.125 51.75 C-2.88265625 52.43626465 -2.6403125 53.1225293 -2.390625 53.82958984 C-1.2988642 56.92693622 -0.21187547 60.02593615 0.875 63.125 C1.2565625 64.20523438 1.638125 65.28546875 2.03125 66.3984375 C2.3921875 67.4296875 2.753125 68.4609375 3.125 69.5234375 C3.46015625 70.47653809 3.7953125 71.42963867 4.140625 72.41162109 C4.875 74.75 4.875 74.75 4.875 76.75 C7.515 77.08 10.155 77.41 12.875 77.75 C12.37747891 83.59587284 10.78916125 88.62547493 7.875 93.75 C4.74650741 95.31424629 1.43069916 94.93446398 -2 94.9375 C-2.72058594 94.94974609 -3.44117188 94.96199219 -4.18359375 94.97460938 C-11.45425916 94.99469409 -11.45425916 94.99469409 -14.125 92.75 C-15.3984375 90.046875 -15.3984375 90.046875 -16.5 86.5 C-16.70133545 85.85901367 -16.9026709 85.21802734 -17.11010742 84.55761719 C-19.58230619 76.53633062 -21.79933495 68.43053636 -23.98828125 60.328125 C-24.20782471 59.51762695 -24.42736816 58.70712891 -24.65356445 57.87207031 C-25.125 55.75 -25.125 55.75 -25.125 52.75 C-27.435 52.75 -29.745 52.75 -32.125 52.75 C-32.36734375 53.84054688 -32.6096875 54.93109375 -32.859375 56.0546875 C-33.01970215 56.77527344 -33.1800293 57.49585938 -33.34521484 58.23828125 C-33.70122079 59.84211265 -34.05568953 61.44628598 -34.40869141 63.05078125 C-35.3541057 67.33732811 -36.32510025 71.61489051 -37.3515625 75.8828125 C-37.54395508 76.6989502 -37.73634766 77.51508789 -37.93457031 78.35595703 C-38.30743589 79.93467888 -38.68940532 81.51128208 -39.08105469 83.08544922 C-39.51718465 84.95524045 -39.83273475 86.85239371 -40.125 88.75 C-39.465 89.41 -38.805 90.07 -38.125 90.75 C-38.5 92.875 -38.5 92.875 -39.125 94.75 C-42.52076062 94.80830787 -45.9163915 94.84369946 -49.3125 94.875 C-50.27220703 94.89175781 -51.23191406 94.90851563 -52.22070312 94.92578125 C-53.15205078 94.93222656 -54.08339844 94.93867187 -55.04296875 94.9453125 C-55.89656982 94.95578613 -56.7501709 94.96625977 -57.62963867 94.97705078 C-60.43492413 94.72180027 -62.54113289 93.83667104 -65.125 92.75 C-63.74981159 84.18017055 -61.72456056 75.80725282 -59.58001328 67.40568924 C-58.97955292 65.05203816 -58.38416807 62.69715289 -57.79006958 60.34188843 C-56.10226032 53.6543633 -54.40554426 46.96910919 -52.70556641 40.28466797 C-51.66087355 36.17541351 -50.62192728 32.0647399 -49.58639908 27.95316696 C-49.19235048 26.39371158 -48.79603968 24.83482595 -48.39739609 23.27653885 C-47.84143603 21.10315724 -47.29275399 18.92805533 -46.74560547 16.75244141 C-46.43186981 15.51765045 -46.11813416 14.2828595 -45.79489136 13.01065063 C-44.89005042 8.60639892 -44.84919357 5.0558467 -46.125 0.75 C-30.7515416 0.09854471 -15.38644636 -0.5204496 0 0 Z M-23.125 15.75 C-23.9643758 18.85256512 -24.7954505 21.95729444 -25.625 25.0625 C-25.86347656 25.94357422 -26.10195312 26.82464844 -26.34765625 27.73242188 C-26.57324219 28.57998047 -26.79882812 29.42753906 -27.03125 30.30078125 C-27.24072266 31.08106689 -27.45019531 31.86135254 -27.66601562 32.6652832 C-28.23250834 34.88253096 -28.23250834 34.88253096 -28.125 37.75 C-16.75481818 38.2912879 -16.75481818 38.2912879 -6.125 34.75 C-2.49661275 31.12161275 -1.00097651 27.84675367 -0.75 22.75 C-0.70101562 22.069375 -0.65203125 21.38875 -0.6015625 20.6875 C-0.98832899 18.54810066 -0.98832899 18.54810066 -3.09765625 17.01171875 C-7.15111944 15.3223399 -10.59911854 15.42067529 -14.9375 15.5625 C-16.11989258 15.58280273 -16.11989258 15.58280273 -17.32617188 15.60351562 C-19.25941169 15.63866544 -21.19229682 15.69246639 -23.125 15.75 Z " fill="#FEFEFE" transform="translate(273.125,17.25)"/>
<path d="M0 0 C7.92 0 15.84 0 24 0 C24.98847872 4.94239362 24.83522037 6.75219889 23.62890625 11.45507812 C23.39263016 12.39509926 23.39263016 12.39509926 23.15158081 13.35411072 C22.80974491 14.70845024 22.46305607 16.06157226 22.11203003 17.41355896 C21.5562781 19.55522695 21.01389976 21.69989588 20.47485352 23.8458252 C19.13372105 29.17324535 17.7697755 34.49477173 16.40661621 39.81658936 C15.25448576 44.3181769 14.11102776 48.82179639 12.97897339 53.32847595 C12.44516613 55.43844819 11.89875757 57.54489231 11.35180664 59.65148926 C11.02427831 60.94914278 10.69734244 62.24694604 10.37109375 63.54492188 C10.08161865 64.67345581 9.79214355 65.80198975 9.49389648 66.96472168 C8.99684052 70.0194168 9.17383895 72.04266027 10 75 C16.11263326 77.30921701 21.60795709 77.45679118 28 76 C36.39927708 70.99617536 37.72784113 55.38334228 40.015625 46.44140625 C40.82480224 43.24247758 41.62859004 40.04227018 42.42871094 36.84106445 C43.25469686 33.54375024 44.09198642 30.24943291 44.9296875 26.95507812 C45.45902312 24.84652721 45.98769297 22.73780903 46.515625 20.62890625 C46.76556213 19.65071426 47.01549927 18.67252228 47.27301025 17.66468811 C48.78244818 11.56565354 49.89551058 6.16040937 48 0 C51.97915159 -0.02886984 55.95827653 -0.04675406 59.9375 -0.0625 C61.07380859 -0.07087891 62.21011719 -0.07925781 63.38085938 -0.08789062 C64.46044922 -0.09111328 65.54003906 -0.09433594 66.65234375 -0.09765625 C68.15269165 -0.10551147 68.15269165 -0.10551147 69.68334961 -0.11352539 C72 0 72 0 73 1 C72.96255873 8.99640581 70.76336732 16.77253907 68.796875 24.4609375 C68.47720764 25.72789459 68.15754028 26.99485168 67.82818604 28.30020142 C67.1537712 30.9689599 66.47402154 33.63628735 65.79052734 36.30273438 C64.92441538 39.68390809 64.07315046 43.06861463 63.22611618 46.45461082 C62.40425696 49.72978323 61.56857343 53.00138623 60.734375 56.2734375 C60.28563019 58.06930801 60.28563019 58.06930801 59.82781982 59.90145874 C56.89743322 71.23997215 53.62001351 83.7885 44.0625 91.3125 C30.95957313 97.87805261 9.90865815 96.22843306 -4 93 C-8.80743225 91.28305991 -12.74633644 88.71325583 -15 84 C-16.22231909 75.82072067 -14.07881957 67.90457174 -12.00629997 60.04375648 C-11.45192603 57.93924303 -10.91475546 55.83094658 -10.38148499 53.72099304 C-9.0556935 48.48906386 -7.70267127 43.26427123 -6.34832764 38.03967285 C-5.19933853 33.60381854 -4.06195734 29.16530485 -2.94003487 24.72252464 C-2.41341753 22.65672123 -1.8701834 20.59577503 -1.32615662 18.53450012 C-1.00574905 17.2692601 -0.68534149 16.00402008 -0.35522461 14.70043945 C-0.06876572 13.59666458 0.21769318 12.49288971 0.51283264 11.35566711 C1.26314968 7.23100759 1.26314968 7.23100759 0 0 Z " fill="#FEFEFE" transform="translate(490,18)"/>
<path d="M0 0 C-0.52228611 4.07383165 -1.12122391 7.91823239 -2.4375 11.8125 C-2.68371094 12.56144531 -2.92992187 13.31039063 -3.18359375 14.08203125 C-4 16 -4 16 -6 18 C-8.47094727 18.28710938 -8.47094727 18.28710938 -11.56640625 18.34375 C-13.25540039 18.38822266 -13.25540039 18.38822266 -14.97851562 18.43359375 C-16.75258789 18.46646484 -16.75258789 18.46646484 -18.5625 18.5 C-31.77810933 18.37323146 -31.77810933 18.37323146 -43.91015625 22.81640625 C-52.00389538 31.273229 -54.03363357 47.01569981 -57 58 C-57.50080078 59.81564453 -57.50080078 59.81564453 -58.01171875 61.66796875 C-61.00551336 72.26770704 -61.00551336 72.26770704 -60.125 83 C-54.29431178 88.48770656 -43.73506269 87.30289797 -36.25 87.25 C-35.14011719 87.25773437 -34.03023438 87.26546875 -32.88671875 87.2734375 C-31.81550781 87.27085938 -30.74429688 87.26828125 -29.640625 87.265625 C-28.19478027 87.26224121 -28.19478027 87.26224121 -26.71972656 87.25878906 C-23.01116167 86.90590946 -20.05438127 86.09655652 -17.4375 83.375 C-16 82 -16 82 -12 82 C-12.50138869 89.52083033 -13.563219 98.74582243 -18.4453125 104.7890625 C-21.21865146 106.94920089 -23.84279894 107.12797544 -27.22094727 107.14526367 C-28.49356163 107.15483345 -28.49356163 107.15483345 -29.79188538 107.16459656 C-30.70747726 107.16570938 -31.62306915 107.1668222 -32.56640625 107.16796875 C-33.51507065 107.17129715 -34.46373505 107.17462555 -35.44114685 107.17805481 C-37.452703 107.18312082 -39.46426756 107.18546324 -41.47583008 107.18530273 C-44.52634951 107.18747427 -47.5764984 107.20559189 -50.62695312 107.22460938 C-52.58593627 107.2275465 -54.54492113 107.22952916 -56.50390625 107.23046875 C-57.40532852 107.23765427 -58.30675079 107.24483978 -59.23548889 107.25224304 C-67.27600151 107.22382443 -76.06986344 106.90202166 -82.52734375 101.57421875 C-87.90006817 95.83096161 -88.67538703 88.92540852 -88.60473633 81.31811523 C-87.85444317 64.79592529 -82.07301196 48.62199614 -77 33 C-76.69561005 32.04548447 -76.69561005 32.04548447 -76.3850708 31.07168579 C-72.98412539 20.49178597 -68.75452915 10.18062823 -59 4 C-53.20557075 1.45584845 -47.59227163 0.49802057 -41.3125 0.3125 C-40.49104492 0.27906494 -39.66958984 0.24562988 -38.82324219 0.21118164 C-25.89392965 -0.23986814 -12.93482419 -0.08424485 0 0 Z " fill="#FEFEFE" transform="translate(478,5)"/>
<path d="M0 0 C0.96813629 0.0028299 1.93627258 0.00565979 2.93374634 0.00857544 C6.01064678 0.01972554 9.08725078 0.0448207 12.1640625 0.0703125 C14.2565062 0.08034898 16.34895448 0.08947366 18.44140625 0.09765625 C23.55740501 0.11964797 28.67318358 0.15414225 33.7890625 0.1953125 C33.1718529 2.3225883 32.54504451 4.44708107 31.9140625 6.5703125 C31.56601562 7.75367188 31.21796875 8.93703125 30.859375 10.15625 C29.7890625 13.1953125 29.7890625 13.1953125 27.7890625 15.1953125 C25.4699707 15.46655273 25.4699707 15.46655273 22.58984375 15.50390625 C21.02266602 15.54161133 21.02266602 15.54161133 19.42382812 15.58007812 C17.22856975 15.6149235 15.03325218 15.6462383 12.83789062 15.67382812 C6.76695874 15.82643892 2.10143819 16.13579107 -3.2109375 19.1953125 C-5.26060447 22.14170876 -6.15158394 24.09028882 -6.34375 27.66796875 C-4.96302951 30.74840378 -4.25830074 30.87174819 -1.203125 32.07421875 C0.49568646 32.65602173 2.20194816 33.2164073 3.9140625 33.7578125 C18.88594247 38.6912072 18.88594247 38.6912072 23.1640625 44.3203125 C27.59967351 53.32536762 25.71661042 63.61273636 23.0078125 72.86328125 C20.33369826 80.2977799 16.09698674 87.46969759 9.2265625 91.6953125 C2.83230345 94.48553463 -3.49214433 94.35503083 -10.3515625 94.36328125 C-11.79665192 94.36827385 -11.79665192 94.36827385 -13.27093506 94.37336731 C-15.29813155 94.37841259 -17.32533629 94.38077638 -19.35253906 94.38061523 C-22.46432916 94.3828149 -25.57577194 94.40103169 -28.6875 94.41992188 C-30.65885295 94.42285359 -32.63020759 94.42483987 -34.6015625 94.42578125 C-35.53486389 94.43296677 -36.46816528 94.44015228 -37.42974854 94.44755554 C-38.29114441 94.44447891 -39.15254028 94.44140228 -40.04003906 94.43823242 C-40.79915588 94.43965744 -41.55827271 94.44108246 -42.34039307 94.44255066 C-44.2109375 94.1953125 -44.2109375 94.1953125 -46.2109375 92.1953125 C-46.62316571 86.98449031 -45.72581283 82.72849719 -44.2109375 77.7578125 C-43.8396875 76.52160156 -43.4684375 75.28539063 -43.0859375 74.01171875 C-42.7971875 73.08230469 -42.5084375 72.15289062 -42.2109375 71.1953125 C-40.2309375 70.7003125 -40.2309375 70.7003125 -38.2109375 70.1953125 C-37.8809375 72.1753125 -37.5509375 74.1553125 -37.2109375 76.1953125 C-32.85682772 76.2536846 -28.50281957 76.28903423 -24.1484375 76.3203125 C-22.91931641 76.33707031 -21.69019531 76.35382813 -20.42382812 76.37109375 C-10.18228006 76.87235596 -10.18228006 76.87235596 -1.43359375 72.4609375 C1.92169447 66.7068842 1.92169447 66.7068842 1.7890625 60.1953125 C-2.37645192 55.95466856 -7.09421139 54.75169303 -12.6484375 53.1953125 C-26.12143961 49.4024488 -26.12143961 49.4024488 -30.05859375 43.359375 C-33.19258506 34.75417853 -31.64488491 25.27688691 -28.48046875 16.890625 C-25.28936769 10.11567198 -20.70546547 4.13971659 -13.69287109 1.10595703 C-9.06950374 -0.1032114 -4.75726438 -0.05271962 0 0 Z " fill="#FEFEFE" transform="translate(673.2109375,17.8046875)"/>
<path d="M0 0 C-1.3 14.3 -1.3 14.3 -6 19 C-8.33837891 19.22705078 -8.33837891 19.22705078 -11.2265625 19.1953125 C-12.7734375 19.18564453 -12.7734375 19.18564453 -14.3515625 19.17578125 C-15.43179688 19.15902344 -16.51203125 19.14226563 -17.625 19.125 C-18.71296875 19.11597656 -19.8009375 19.10695313 -20.921875 19.09765625 C-23.61480152 19.07403409 -26.30729255 19.04109556 -29 19 C-29.08934814 20.0120752 -29.17869629 21.02415039 -29.27075195 22.06689453 C-30.02968332 28.09824104 -31.62684486 33.94327729 -33.12999535 39.82244492 C-33.6768833 41.96460581 -34.21656551 44.10846601 -34.75422668 46.25296021 C-36.28215894 52.34386827 -37.81917016 58.43242598 -39.36987305 64.51757812 C-40.32114097 68.25256852 -41.261073 71.99025707 -42.1937809 75.72992325 C-42.55108804 77.15283562 -42.91278285 78.57465352 -43.27889061 79.995327 C-43.78794927 81.97187862 -44.28146433 83.95241411 -44.77416992 85.93310547 C-45.05983322 87.05925262 -45.34549652 88.18539978 -45.63981628 89.34567261 C-45.75867691 90.22160065 -45.87753754 91.09752869 -46 92 C-45.34 92.66 -44.68 93.32 -44 94 C-44 95.32 -44 96.64 -44 98 C-47.58331625 98.02907084 -51.16660208 98.04682263 -54.75 98.0625 C-55.76578125 98.07087891 -56.7815625 98.07925781 -57.828125 98.08789062 C-58.8078125 98.09111328 -59.7875 98.09433594 -60.796875 98.09765625 C-61.69760742 98.10289307 -62.59833984 98.10812988 -63.52636719 98.11352539 C-65.83389804 98.00762312 -67.79134405 97.65132813 -70 97 C-70.61325266 88.89765127 -68.34163167 81.43402147 -66.31640625 73.66796875 C-65.9368537 72.18463847 -65.55811837 70.70109887 -65.18016052 69.21736145 C-64.18787008 65.33164504 -63.18397384 61.44901839 -62.17773438 57.56689453 C-61.15452893 53.60968806 -60.14350549 49.64937194 -59.13085938 45.68945312 C-57.65097837 39.91283237 -56.16850653 34.13688837 -54.67407227 28.36401367 C-54.22439842 26.62482918 -54.22439842 26.62482918 -53.76564026 24.85050964 C-53.23722417 22.88319516 -52.64417 20.93250999 -52 19 C-54.60578866 19.08695958 -57.2081279 19.19381408 -59.8125 19.3125 C-60.55048828 19.33505859 -61.28847656 19.35761719 -62.04882812 19.38085938 C-66.25361239 19.48961975 -66.25361239 19.48961975 -69.76171875 21.54296875 C-70.17035156 22.02378906 -70.57898438 22.50460938 -71 23 C-72.32 23 -73.64 23 -75 23 C-73.79310345 7.79310345 -73.79310345 7.79310345 -70 4 C-68.05786572 3.89212551 -66.11184232 3.85372027 -64.16674805 3.84228516 C-62.29426643 3.82689194 -62.29426643 3.82689194 -60.38395691 3.81118774 C-59.71248312 3.80774982 -59.04100933 3.8043119 -58.34918785 3.80076981 C-56.2518039 3.78900689 -54.15462832 3.76956011 -52.05732727 3.74765015 C-46.09273218 3.68595397 -40.12815599 3.63201623 -34.16333008 3.59863281 C-30.51803562 3.57767894 -26.87311669 3.54236645 -23.22803688 3.49787521 C-21.83863563 3.48371577 -20.44916788 3.47499288 -19.0596981 3.47182083 C-17.11352943 3.46690887 -15.16744163 3.44213518 -13.22143555 3.41650391 C-12.11414597 3.40841705 -11.00685638 3.4003302 -9.86601257 3.39199829 C-5.72518665 2.82563766 -4.16105353 0 0 0 Z " fill="#FEFEFE" transform="translate(644,14)"/>
<path d="M0 0 C3.07938375 2.61078187 4.72091091 4.16273272 6 8 C6.36768005 12.96368063 6.13017111 16.02709051 3 20 C2.34 20 1.68 20 1 20 C1 20.66 1 21.32 1 22 C1.57290771 22.26353271 2.14581543 22.52706543 2.73608398 22.79858398 C5.1352355 24.07176684 7.10049327 25.52957102 9.22265625 27.22265625 C10.00833984 27.84333984 10.79402344 28.46402344 11.60351562 29.10351562 C13.24713196 30.41292562 14.89035925 31.7228241 16.53320312 33.03320312 C17.31759766 33.65259766 18.10199219 34.27199219 18.91015625 34.91015625 C19.62308838 35.47871338 20.33602051 36.04727051 21.07055664 36.63305664 C23.05618142 38.1800548 23.05618142 38.1800548 26 39 C28.89160089 37.82549699 28.89160089 37.82549699 32.08203125 36.01953125 C32.98534431 35.53330795 32.98534431 35.53330795 33.90690613 35.03726196 C35.88072523 33.97179469 37.84646717 32.89225668 39.8125 31.8125 C41.17464081 31.07404772 42.53727488 30.33650459 43.90039062 29.59985352 C47.94060219 27.41264092 51.97103175 25.20783558 56 23 C58.12886396 21.83586016 60.2577661 20.67179014 62.38671875 19.5078125 C65.14718966 17.99824946 67.90742435 16.48829409 70.66577148 14.97485352 C77.69010702 11.13286543 84.79511577 7.4917869 92 4 C92 4.66 92 5.32 92 6 C90.26406765 7.48443685 88.4560534 8.88462191 86.625 10.25 C85.42262389 11.15551591 84.22083289 12.06180913 83.01953125 12.96875 C82.36936035 13.45730469 81.71918945 13.94585937 81.04931641 14.44921875 C77.44172997 17.17919123 73.87927671 19.96705358 70.3125 22.75 C65.55875368 26.45619832 60.80110176 30.15668913 56.0234375 33.83203125 C55.21350342 34.4569043 54.40356934 35.08177734 53.5690918 35.72558594 C52.02326333 36.91787844 50.47536513 38.10749412 48.92504883 39.29394531 C45.00711143 42.32134043 41.40732891 45.40523453 38 49 C38.47195801 49.36649658 38.94391602 49.73299316 39.43017578 50.1105957 C50.88287736 59.00607303 62.30846199 67.93447919 73.6953125 76.9140625 C79.74546976 81.68152906 85.80745231 86.41751471 92 91 C89 92 89 92 86.42578125 90.8828125 C85.39839844 90.30273438 84.37101562 89.72265625 83.3125 89.125 C82.74593185 88.80891785 82.17936371 88.49283569 81.59562683 88.16717529 C79.72502024 87.12075963 77.86271793 86.06038422 76 85 C74.70280021 84.27144442 73.40502247 83.543917 72.10668945 82.81738281 C69.41545477 81.30967093 66.72729195 79.79668943 64.04150391 78.27929688 C58.3505479 75.06599066 52.63872447 71.89035345 46.92553711 68.71679688 C45.22699449 67.77196912 43.53046409 66.82352681 41.83398438 65.875 C36.28233996 62.77895648 30.71444228 59.7848428 25 57 C23.80117187 57.92619141 23.80117187 57.92619141 22.578125 58.87109375 C21.46884613 59.72668714 20.35946323 60.58214568 19.25 61.4375 C18.37939941 62.10942383 18.37939941 62.10942383 17.49121094 62.79492188 C14.5125721 65.08816737 11.52333462 67.3635765 8.5 69.59765625 C7.95311523 70.00250244 7.40623047 70.40734863 6.84277344 70.82446289 C5.31945875 71.94873637 3.79262305 73.06823441 2.265625 74.1875 C-0.07475387 75.80029259 -0.07475387 75.80029259 -1 78 C-0.34 78 0.32 78 1 78 C3.65347917 82.58808748 3.50682049 86.82552631 3 92 C1.64999704 96.36765662 0.65557281 97.59657058 -3.25 100 C-7.72855666 101.19428178 -9.77737575 100.83245958 -14 99 C-16.4375 96.875 -16.4375 96.875 -18 95 C-17.67 98.63 -17.34 102.26 -17 106 C-18.32 105.67 -19.64 105.34 -21 105 C-23.26787852 98.19636445 -22.26379921 91.92626536 -19.359375 85.4609375 C-14.38675069 76.4587728 -6.15199779 70.80923628 2 64.89453125 C2.65162109 64.41918945 3.30324219 63.94384766 3.97460938 63.45410156 C5.37832824 62.44632076 6.79760306 61.45999267 8.22851562 60.49121094 C12.53004905 57.55837381 12.53004905 57.55837381 15.21875 53.2265625 C15.35796875 51.93878906 15.35796875 51.93878906 15.5 50.625 C15.6134375 49.75101563 15.726875 48.87703125 15.84375 47.9765625 C15.8953125 47.32429688 15.946875 46.67203125 16 46 C16.66 46 17.32 46 18 46 C17.81171228 43.55519921 17.81171228 43.55519921 17 41 C15.68050758 40.3063416 14.34310136 39.6467619 13 39 C10.9687655 37.50760687 8.97842524 35.99653692 7 34.4375 C3.56233103 31.74798334 0.12600867 29.06972383 -3.4140625 26.515625 C-5.00347656 25.36320312 -5.00347656 25.36320312 -6.625 24.1875 C-7.58664063 23.50042969 -8.54828125 22.81335938 -9.5390625 22.10546875 C-12.94000715 19.19577166 -14.70347212 16.71986168 -15.46875 12.28125 C-15.55339515 4.74783129 -15.55339515 4.74783129 -12.6875 0.875 C-7.8566574 -2.4953553 -5.40340252 -2.04956647 0 0 Z M-7 4 C-9.60704898 6.60704898 -9.23905333 8.47338241 -9.265625 12.02734375 C-9.10382514 14.31952326 -9.10382514 14.31952326 -7 17 C-4.41619823 17.25030977 -4.41619823 17.25030977 -2 17 C-0.30733254 13.25831403 0.22058228 11.64949227 -1.125 7.6875 C-2.7271485 4.92496543 -2.7271485 4.92496543 -5.0625 4 C-5.701875 4 -6.34125 4 -7 4 Z M-9.5625 83.125 C-12.25300093 85.77900735 -12.25300093 85.77900735 -12.4375 89.125 C-12.17844932 92.19080542 -12.17844932 92.19080542 -10 95 C-6.06924356 94.42547254 -6.06924356 94.42547254 -3 92 C-2.38965032 86.65476647 -2.38965032 86.65476647 -4.4375 82 C-7.10945624 80.28994801 -6.8234929 80.85362826 -9.5625 83.125 Z " fill="#FEFEFE" transform="translate(27,7)"/>
<path d="M0 0 C1.65 0 3.3 0 5 0 C5 0.33 5 0.66 5 1 C3.35 1 1.7 1 0 1 C0 0.67 0 0.34 0 0 Z " fill="#FF33CC" transform="translate(502,1)"/>
<path d="M0 0 C1.65 0 3.3 0 5 0 C5 0.33 5 0.66 5 1 C3.35 1 1.7 1 0 1 C0 0.67 0 0.34 0 0 Z " fill="#FF33CC" transform="translate(316,0)"/>
<path d="M0 0 C2 1 2 1 2 1 Z " fill="#FF99FF" transform="translate(0,0)"/>
</svg>
